<svg t="1606292457550" class="icon" viewBox="0 0 1024 1024" version="1.1" xmlns="http://www.w3.org/2000/svg" p-id="3896" width="200" height="200"><path d="M80.842105 80.842105h862.31579v862.31579h-862.31579z" fill="#333333" p-id="3897"></path><path d="M0 0h1024v1024H0z" fill="#F0F0F0" p-id="3898"></path><path d="M659.671579 811.654737l-104.016842 30.181052L485.052632 651.587368H195.637895l-69.524211 190.248421H10.24L206.416842 292.648421A183.781053 183.781053 0 0 1 243.604211 215.578947a114.256842 114.256842 0 0 1 89.465263-42.037894c61.44 0 103.477895 39.882105 126.652631 120.185263z m-215.578947-264.084211L335.225263 269.473684l-112.101052 280.252632z" fill="#DBDBDB" p-id="3899"></path><path d="M1013.76 741.052632v107.789473a1382.938947 1382.938947 0 0 0-235.52-43.115789 2132.075789 2132.075789 0 0 0-225.818947 30.72v-104.016842a107.789474 107.789474 0 0 1 11.317894-44.732632 715.183158 715.183158 0 0 1 43.654737-70.063158l269.473684-303.427368H527.090526V195.098947h319.056842a161.684211 161.684211 0 0 1 88.926316 20.48 103.477895 103.477895 0 0 1 44.193684 40.96 111.562105 111.562105 0 0 1 10.24 100.783158 358.938947 358.938947 0 0 1-31.258947 53.894737l-263.545263 286.181053a564.816842 564.816842 0 0 1 167.612631-10.24 538.947368 538.947368 0 0 1 151.444211 53.894737z" fill="#DBDBDB" p-id="3900"></path></svg>