<?xml version="1.0" standalone="no"?><!DOCTYPE svg PUBLIC "-//W3C//DTD SVG 1.1//EN" "http://www.w3.org/Graphics/SVG/1.1/DTD/svg11.dtd"><svg t="1607655776336" class="icon" viewBox="0 0 1024 1024" version="1.1" xmlns="http://www.w3.org/2000/svg" p-id="4084" xmlns:xlink="http://www.w3.org/1999/xlink" width="200" height="200"><defs><style type="text/css"></style></defs><path d="M0 0h1024v1024H0z" fill="#F0F0F0" p-id="4085"></path><path d="M601.043478 694.53913l-62.330435 17.808696-42.295652-115.756522h-175.860869L278.26087 712.347826H207.026087l117.982609-333.913043c4.452174-17.808696 11.130435-33.391304 22.260869-46.747826 13.356522-15.582609 33.391304-26.713043 53.426087-24.486957 37.843478 0 62.330435 24.486957 75.686957 73.46087L601.043478 694.53913zM471.930435 534.26087l-66.782609-169.182609-69.008696 169.182609h135.791305z" fill="#DBDBDB" p-id="4086"></path><path d="M816.973913 652.243478v64.556522c-46.747826-13.356522-93.495652-22.26087-142.469565-26.713043-46.747826 4.452174-91.269565 8.904348-135.791305 17.808695V645.565217c0-8.904348 2.226087-17.808696 6.678261-26.713043 8.904348-15.582609 17.808696-28.93913 26.713044-42.295652l162.504348-184.765218h-211.478261v-71.234782h193.669565c17.808696-2.226087 37.843478 2.226087 53.426087 13.356521 11.130435 4.452174 20.034783 13.356522 26.713043 24.486957 11.130435 17.808696 13.356522 40.069565 6.678261 60.104348-4.452174 11.130435-11.130435 22.26087-20.034782 33.391304L623.304348 625.530435c33.391304-6.678261 66.782609-8.904348 102.4-6.678261 31.165217 6.678261 62.330435 17.808696 91.269565 33.391304z" fill="#DBDBDB" p-id="4087"></path></svg>